<svg width="82" height="82" viewBox="0 0 82 82" fill="none" xmlns="http://www.w3.org/2000/svg">
<path d="M0 41.0005C0 49.1095 2.40461 57.0364 6.90975 63.7789C11.4149 70.5213 17.8182 75.7763 25.31 78.8795C32.8017 81.9827 41.0455 82.7947 48.9987 81.2127C56.9519 79.6307 64.2574 75.7258 69.9914 69.9918C75.7253 64.2579 79.6302 56.9524 81.2122 48.9992C82.7942 41.046 81.9822 32.8022 78.879 25.3105C75.7759 17.8187 70.5208 11.4154 63.7784 6.91022C57.036 2.40509 49.109 0.000479772 41 0.000479772C30.1299 0.0127828 19.7085 4.33636 12.0222 12.0227C4.33588 19.709 0.0123031 30.1304 0 41.0005ZM75.6923 41.0005C75.6923 47.862 73.6576 54.5694 69.8456 60.2745C66.0336 65.9796 60.6154 70.4262 54.2762 73.052C47.937 75.6778 40.9615 76.3648 34.2319 75.0262C27.5022 73.6876 21.3206 70.3834 16.4688 65.5316C11.617 60.6798 8.3129 54.4983 6.97429 47.7686C5.63568 41.039 6.32271 34.0635 8.94849 27.7243C11.5743 21.3851 16.0209 15.9669 21.726 12.1549C27.4311 8.34284 34.1385 6.30817 41 6.30817C50.1978 6.31856 59.0159 9.97697 65.5197 16.4808C72.0235 22.9846 75.6819 31.8027 75.6923 41.0005Z" fill="black"/>
<path d="M23.001 38.7699C22.7081 39.0627 22.4758 39.4104 22.3172 39.7931C22.1587 40.1758 22.0771 40.5859 22.0771 41.0001C22.0771 41.4143 22.1587 41.8244 22.3172 42.2071C22.4758 42.5898 22.7081 42.9375 23.001 43.2304L36.3815 56.6109C36.973 57.2024 37.7752 57.5347 38.6117 57.5347C39.4482 57.5347 40.2504 57.2024 40.8419 56.6109C41.4333 56.0194 41.7656 55.2172 41.7656 54.3807C41.7656 53.5443 41.4333 52.7421 40.8419 52.1506L32.845 44.1539H56.7695C57.606 44.1539 58.4082 43.8217 58.9996 43.2302C59.5911 42.6387 59.9233 41.8366 59.9233 41.0001C59.9233 40.1637 59.5911 39.3615 58.9996 38.77C58.4082 38.1785 57.606 37.8463 56.7695 37.8463H32.845L40.8418 29.8496C41.4333 29.2581 41.7656 28.4559 41.7656 27.6195C41.7656 26.783 41.4333 25.9808 40.8418 25.3893C40.2504 24.7978 39.4482 24.4655 38.6117 24.4655C37.7752 24.4655 36.973 24.7978 36.3815 25.3893L23.001 38.7699Z" fill="black"/>
</svg>
