<svg width="36" height="36" viewBox="0 0 36 36" fill="none" xmlns="http://www.w3.org/2000/svg">
<path d="M18 0C14.4399 0 10.9598 1.05568 7.99974 3.03355C5.03966 5.01141 2.73255 7.82263 1.37018 11.1117C0.00779912 14.4008 -0.348661 18.02 0.345873 21.5116C1.04041 25.0033 2.75474 28.2106 5.27209 30.7279C7.78943 33.2453 10.9967 34.9596 14.4884 35.6541C17.98 36.3487 21.5992 35.9922 24.8883 34.6298C28.1774 33.2674 30.9886 30.9603 32.9665 28.0003C34.9443 25.0402 36 21.5601 36 18C35.9946 13.2278 34.0964 8.65253 30.722 5.27804C27.3475 1.90356 22.7722 0.00540134 18 0ZM18 33.2308C14.9876 33.2308 12.0429 32.3375 9.53824 30.6639C7.03356 28.9903 5.08139 26.6116 3.92861 23.8286C2.77583 21.0455 2.47421 17.9831 3.06189 15.0286C3.64958 12.0741 5.10017 9.36028 7.23023 7.23022C9.36029 5.10016 12.0742 3.64957 15.0286 3.06189C17.9831 2.4742 21.0455 2.77582 23.8286 3.9286C26.6116 5.08138 28.9903 7.03355 30.6639 9.53824C32.3375 12.0429 33.2308 14.9876 33.2308 18C33.2262 22.038 31.6201 25.9094 28.7647 28.7647C25.9094 31.6201 22.0381 33.2262 18 33.2308Z" fill="black"/>
<path d="M18.9792 10.0978C18.8506 9.96926 18.698 9.86726 18.53 9.79767C18.362 9.72808 18.1819 9.69226 18 9.69226C17.8182 9.69226 17.6381 9.72808 17.4701 9.79767C17.3021 9.86726 17.1495 9.96926 17.0209 10.0978L11.1465 15.9722C10.8868 16.2319 10.741 16.5841 10.741 16.9513C10.741 17.3186 10.8868 17.6708 11.1465 17.9304C11.4062 18.1901 11.7584 18.336 12.1256 18.336C12.4928 18.336 12.845 18.1901 13.1047 17.9304L16.6154 14.4196V24.923C16.6154 25.2903 16.7613 25.6425 17.021 25.9021C17.2806 26.1618 17.6328 26.3077 18 26.3077C18.3673 26.3077 18.7194 26.1618 18.9791 25.9021C19.2388 25.6425 19.3847 25.2903 19.3847 24.923V14.4196L22.8954 17.9304C23.1551 18.1901 23.5072 18.336 23.8745 18.336C24.2417 18.336 24.5939 18.1901 24.8536 17.9304C25.1132 17.6707 25.2591 17.3186 25.2591 16.9513C25.2591 16.5841 25.1132 16.2319 24.8536 15.9722L18.9792 10.0978Z" fill="black"/>
</svg>
